<?xml version="1.0" encoding="utf-8"?>
<!-- Generator: Adobe Illustrator 19.1.0, SVG Export Plug-In . SVG Version: 6.00 Build 0)  -->
<svg version="1.1" id="Livello_1" xmlns="http://www.w3.org/2000/svg" xmlns:xlink="http://www.w3.org/1999/xlink" x="0px" y="0px"
	 viewBox="0 0 640 180" style="enable-background:new 0 0 640 180;" xml:space="preserve">
<style type="text/css">
	.st0{fill:#FFFFFF;}
</style>
<g>
	<path class="st0" d="M90.7,42.4H83v9.7h-3V30.3h12v2.3H83v7.5h7.6V42.4z"/>
	<path class="st0" d="M118.7,42h-7.4v7.8h8.7v2.3h-11.8V30.3H120v2.3h-8.6v7h7.4V42z"/>
	<path class="st0" d="M146.5,46.6c0-1-0.3-1.8-0.9-2.5c-0.6-0.6-1.6-1.2-3-1.8c-2-0.6-3.6-1.5-4.7-2.5c-1.1-1-1.6-2.4-1.6-4
		c0-1.7,0.6-3.1,1.8-4.2c1.2-1.1,2.8-1.7,4.7-1.7c2,0,3.6,0.6,4.9,1.9c1.2,1.2,1.8,2.8,1.8,4.7l0,0.1h-2.9c0-1.3-0.3-2.3-1-3.1
		c-0.7-0.8-1.6-1.2-2.7-1.2c-1.1,0-1.9,0.3-2.5,1c-0.6,0.7-0.9,1.5-0.9,2.5c0,0.9,0.3,1.7,0.9,2.4c0.6,0.6,1.7,1.2,3.2,1.8
		c2,0.6,3.5,1.5,4.5,2.5c1,1,1.6,2.4,1.6,4.1c0,1.8-0.6,3.2-1.8,4.2c-1.2,1.1-2.8,1.6-4.8,1.6c-1.9,0-3.6-0.6-5-1.7
		c-1.4-1.1-2.1-2.8-2.1-4.9l0-0.1h2.9c0,1.5,0.4,2.6,1.2,3.3c0.8,0.7,1.8,1.1,2.9,1.1c1.1,0,2-0.3,2.6-1
		C146.2,48.6,146.5,47.7,146.5,46.6z"/>
	<path class="st0" d="M179.5,32.6h-5.8v19.5h-3.1V32.6h-5.7v-2.3h14.6V32.6z"/>
	<path class="st0" d="M198.9,52.1h-3V30.3h3V52.1z"/>
	<path class="st0" d="M222.8,47.1l0.3,1.3h0.1l0.3-1.3l4.5-16.8h3.2l-6.7,21.8h-3L215,30.3h3.2L222.8,47.1z"/>
	<path class="st0" d="M255.7,46.6h-6.5l-1.6,5.5h-3.2l6.5-21.8h2.9l6.5,21.8h-3.2L255.7,46.6z M249.9,44.2h5.2l-2.5-8.9h-0.1
		L249.9,44.2z"/>
	<path class="st0" d="M279.5,49.8h8.8v2.3h-11.9V30.3h3V49.8z"/>
	<path class="st0" d="M324.9,52.1V30.3h6.2c2.4,0,4.3,0.9,5.8,2.6c1.5,1.7,2.2,4,2.2,6.7v3.1c0,2.8-0.7,5-2.2,6.7
		c-1.5,1.7-3.4,2.6-5.8,2.6H324.9z M328,32.6v17.2h3.1c1.5,0,2.7-0.7,3.6-2c0.9-1.3,1.3-3,1.3-5.1v-3.1c0-2-0.4-3.7-1.3-5
		c-0.9-1.3-2.1-2-3.6-2H328z"/>
	<path class="st0" d="M366.7,42h-7.4v7.8h8.7v2.3h-11.8V30.3h11.7v2.3h-8.6v7h7.4V42z"/>
	<path class="st0" d="M387.6,49.8h8.8v2.3h-11.9V30.3h3V49.8z"/>
	<path class="st0" d="M433,52.1V30.3h6c2.1,0,3.7,0.5,4.9,1.5c1.2,1,1.8,2.4,1.8,4.4c0,1-0.3,1.9-0.8,2.7c-0.5,0.8-1.2,1.4-2.1,1.7
		c1.3,0.2,2.2,0.8,2.9,1.8c0.7,1,1,2.2,1,3.5c0,2-0.6,3.5-1.7,4.6s-2.7,1.6-4.8,1.6H433z M436.1,39.8h3.5c1,0,1.7-0.3,2.3-1
		c0.6-0.6,0.8-1.5,0.8-2.6c0-1.2-0.3-2.1-0.9-2.7c-0.6-0.6-1.5-0.9-2.7-0.9h-3V39.8z M436.1,41.9v7.9h4.2c1.1,0,1.9-0.3,2.5-1
		c0.6-0.7,0.9-1.6,0.9-2.9c0-1.2-0.3-2.2-0.9-2.9c-0.6-0.7-1.4-1.1-2.5-1.1h-0.2H436.1z"/>
	<path class="st0" d="M473.1,46.6h-6.5l-1.6,5.5h-3.2l6.5-21.8h2.9l6.5,21.8h-3.2L473.1,46.6z M467.3,44.2h5.1l-2.5-8.9h-0.1
		L467.3,44.2z"/>
	<path class="st0" d="M507.3,45.6L507.3,45.6c0.1,2.2-0.5,3.9-1.8,5.1c-1.2,1.2-2.9,1.8-5.1,1.8c-2.2,0-4-0.7-5.3-2.1
		c-1.3-1.4-2-3.4-2-6v-6c0-2.6,0.7-4.6,2-6c1.3-1.4,3.1-2.2,5.3-2.2c2.2,0,4,0.6,5.2,1.7c1.2,1.2,1.9,2.8,1.8,5.1l0,0.1h-2.9
		c0-1.6-0.3-2.7-1-3.4c-0.7-0.7-1.7-1.1-3.1-1.1c-1.3,0-2.4,0.5-3.1,1.5c-0.7,1-1.1,2.4-1.1,4.3v6.1c0,1.9,0.4,3.3,1.1,4.4
		s1.8,1.5,3.2,1.5c1.3,0,2.3-0.4,3-1.1c0.7-0.7,1-1.9,1-3.5H507.3z"/>
	<path class="st0" d="M527.4,52.1h-3V30.3h3V52.1z"/>
	<path class="st0" d="M560,44.2c0,2.6-0.7,4.6-2.1,6c-1.4,1.4-3.3,2.2-5.6,2.2c-2.3,0-4.2-0.7-5.5-2.2c-1.4-1.4-2.1-3.5-2.1-6v-6
		c0-2.6,0.7-4.6,2.1-6c1.4-1.5,3.2-2.2,5.5-2.2c2.3,0,4.2,0.7,5.6,2.2c1.4,1.5,2.1,3.5,2.1,6.1V44.2z M557,38.2
		c0-1.9-0.4-3.3-1.2-4.3c-0.8-1-2-1.5-3.5-1.5c-1.5,0-2.6,0.5-3.4,1.5c-0.8,1-1.2,2.4-1.2,4.3v6c0,1.9,0.4,3.4,1.2,4.4
		c0.8,1,1.9,1.5,3.4,1.5c1.5,0,2.7-0.5,3.5-1.5c0.8-1,1.2-2.4,1.2-4.4V38.2z"/>
</g>
<g>
	<path class="st0" d="M101.5,120.5h-6.9l-2.5,14.6h-6.6l2.6-14.6H80v-6h9.1l1.8-10.3h-8.3V98H92l2.6-14.8h6.5L98.6,98h6.9l2.6-14.8
		h6.5L112,98h7.9v6.1h-8.9l-1.8,10.3h8v6H108l-2.6,14.6h-6.6L101.5,120.5z M95.7,114.5h6.8l1.8-10.3h-6.9L95.7,114.5z"/>
	<path class="st0" d="M141.9,127.9c1.8,0,3.2-0.5,4.3-1.6c1.1-1.1,1.6-2.5,1.6-4.3h9.5l0.1,0.2c0.1,3.9-1.4,7.2-4.4,9.8
		c-3,2.6-6.7,3.9-11.1,3.9c-5.7,0-10.1-1.8-13.2-5.5c-3.1-3.7-4.7-8.3-4.7-14v-1.1c0-5.7,1.6-10.3,4.7-14c3.1-3.7,7.5-5.5,13.2-5.5
		c4.7,0,8.5,1.4,11.4,4.1c2.9,2.7,4.3,6.3,4.2,10.7l-0.1,0.2h-9.5c0-2-0.5-3.7-1.6-5c-1.1-1.3-2.5-2-4.4-2c-2.7,0-4.6,1.1-5.7,3.2
		c-1.1,2.2-1.7,4.9-1.7,8.3v1.1c0,3.4,0.6,6.2,1.7,8.3C137.2,126.9,139.2,127.9,141.9,127.9z"/>
	<path class="st0" d="M187.1,129.4c-1.2,2.1-2.7,3.7-4.5,4.8c-1.8,1.1-4,1.7-6.4,1.7c-4.1,0-7.3-1.4-9.5-4.1
		c-2.3-2.8-3.4-7-3.4-12.8V96.5h10.4V119c0,3.4,0.5,5.7,1.4,6.9c0.9,1.2,2.3,1.9,4.3,1.9c1.7,0,3.1-0.3,4.3-0.8
		c1.2-0.5,2.2-1.3,2.9-2.4V96.5h10.4v38.6h-8.6L187.1,129.4z"/>
	<path class="st0" d="M203.1,115.5c0-5.8,1.6-10.5,4.8-14.1c3.2-3.7,7.7-5.5,13.3-5.5c5.7,0,10.2,1.8,13.4,5.5
		c3.2,3.7,4.9,8.4,4.9,14.2v0.7c0,5.8-1.6,10.5-4.8,14.2c-3.2,3.7-7.7,5.5-13.4,5.5c-5.7,0-10.2-1.8-13.4-5.5
		c-3.2-3.7-4.8-8.4-4.8-14.2V115.5z M213.5,116.2c0,3.5,0.6,6.3,1.9,8.5c1.2,2.1,3.2,3.2,6,3.2c2.7,0,4.7-1.1,5.9-3.2
		c1.2-2.1,1.9-5,1.9-8.5v-0.7c0-3.4-0.6-6.2-1.9-8.4c-1.3-2.2-3.2-3.2-6-3.2c-2.7,0-4.7,1.1-5.9,3.3c-1.2,2.2-1.9,5-1.9,8.4V116.2z"
		/>
	<path class="st0" d="M266.3,105.5l-3.8-0.1c-1.5,0-2.8,0.3-3.8,1c-1,0.6-1.8,1.5-2.3,2.7v26.1H246V96.5h9.7l0.5,5.7
		c0.9-2,2.1-3.6,3.5-4.7c1.4-1.1,3.1-1.7,5-1.7c0.5,0,1,0,1.4,0.1c0.4,0.1,0.9,0.2,1.3,0.3L266.3,105.5z"/>
	<path class="st0" d="M287.8,135.9c-5.8,0-10.3-1.8-13.5-5.3c-3.2-3.5-4.9-8.1-4.9-13.6v-1.4c0-5.8,1.6-10.5,4.7-14.2
		c3.1-3.7,7.5-5.5,13-5.5c5.2,0,9.2,1.6,11.9,4.8c2.8,3.2,4.2,7.5,4.2,12.8v5.4h-23l-0.1,0.2c0.2,2.6,1,4.8,2.4,6.4
		c1.4,1.6,3.6,2.5,6.4,2.5c2.3,0,4.3-0.2,5.9-0.7c1.6-0.5,3.3-1.2,5-2.2l2.8,6.4c-1.5,1.3-3.6,2.3-6.3,3.2
		C293.8,135.5,290.9,135.9,287.8,135.9z M287.1,103.9c-2.1,0-3.7,0.7-4.8,2.2c-1.1,1.4-1.8,3.3-2.1,5.7l0.1,0.2H293v-0.8
		c0-2.3-0.5-4-1.4-5.3C290.6,104.5,289.2,103.9,287.1,103.9z"/>
	<path class="st0" d="M309.2,116.2c0-6.2,1.3-11.1,3.9-14.8c2.6-3.7,6.2-5.5,10.9-5.5c2.6,0,5,0.6,6.9,1.7c2,1.1,3.6,2.7,4.9,4.7
		V79.5h4.3v55.7h-3.5l-0.6-5.6c-1.3,2-3,3.6-5,4.7c-2,1.1-4.4,1.6-7.1,1.6c-4.6,0-8.2-1.7-10.8-5.2c-2.6-3.4-3.9-8-3.9-13.8V116.2z
		 M313.5,116.9c0,4.7,0.9,8.4,2.8,11.1c1.9,2.8,4.7,4.1,8.4,4.1c2.8,0,5.1-0.6,6.9-1.8c1.8-1.2,3.3-2.9,4.3-5.1V107
		c-1-2.2-2.4-4-4.1-5.4c-1.8-1.4-4.1-2.1-7-2.1c-3.8,0-6.6,1.5-8.5,4.6c-1.9,3.1-2.8,7.1-2.8,12V116.9z"/>
	<path class="st0" d="M356.3,85.5h-4.2v-6h4.2V85.5z M356.3,135.2h-4.2V96.5h4.2V135.2z"/>
	<path class="st0" d="M376,96.5l0.5,5.5c1.3-2,2.9-3.5,4.7-4.6c1.9-1.1,4-1.6,6.3-1.6c3.9,0,6.9,1.3,9.1,3.8s3.3,6.5,3.3,11.9v23.7
		h-10.5v-23.6c0-2.8-0.5-4.7-1.4-5.9c-1-1.2-2.4-1.7-4.3-1.7c-1.5,0-2.9,0.3-4.1,0.9c-1.2,0.6-2.1,1.4-2.9,2.4v27.9h-10.4V96.5H376z
		"/>
	<path class="st0" d="M430.5,135.2c-0.4-0.9-0.7-1.8-1-2.8s-0.5-2-0.6-3c-1.1,1.9-2.5,3.4-4.2,4.7c-1.8,1.2-3.9,1.9-6.3,1.9
		c-4,0-7.2-1-9.3-3.1c-2.2-2.1-3.3-4.9-3.3-8.5c0-3.8,1.5-6.7,4.4-8.8c2.9-2.1,7.2-3.1,12.8-3.1h5.9v-3.1c0-1.9-0.5-3.3-1.5-4.3
		c-1-1-2.4-1.5-4.4-1.5c-1.7,0-3,0.4-3.9,1.2c-0.9,0.8-1.4,1.9-1.4,3.4h-10l-0.1-0.2c-0.2-3.3,1.3-6.1,4.3-8.4
		c3-2.4,6.9-3.6,11.8-3.6c4.6,0,8.4,1.2,11.3,3.5c2.9,2.3,4.3,5.7,4.3,10v16c0,1.8,0.1,3.5,0.4,5.1c0.3,1.6,0.7,3.2,1.3,4.7H430.5z
		 M421,128.2c1.8,0,3.4-0.5,4.9-1.4c1.4-0.9,2.4-2,2.9-3.1v-5.5h-5.9c-2.2,0-3.9,0.5-5,1.6c-1.1,1.1-1.7,2.4-1.7,4
		c0,1.3,0.4,2.3,1.3,3.1C418.3,127.8,419.5,128.2,421,128.2z"/>
	<path class="st0" d="M481.9,116.9c0,5.7-1.3,10.3-4,13.8c-2.6,3.5-6.3,5.2-11.1,5.2c-2,0-3.8-0.4-5.4-1.1c-1.6-0.7-2.9-1.9-4-3.3
		V150H447V96.5h9.4l0.6,4.6c1.1-1.7,2.5-3,4.1-3.9c1.6-0.9,3.5-1.4,5.6-1.4c4.8,0,8.5,1.9,11.1,5.6c2.6,3.7,4,8.6,4,14.7V116.9z
		 M471.4,116.2c0-3.6-0.6-6.6-1.8-8.8c-1.2-2.3-3.1-3.4-5.6-3.4c-1.6,0-2.9,0.3-4,1c-1.1,0.6-2,1.6-2.6,2.7v16.9
		c0.6,1.1,1.5,1.9,2.6,2.5c1.1,0.6,2.5,0.9,4.1,0.9c2.5,0,4.4-1,5.5-3c1.2-2,1.8-4.7,1.8-8V116.2z"/>
	<path class="st0" d="M486.7,115.5c0-5.8,1.6-10.5,4.8-14.1c3.2-3.7,7.7-5.5,13.3-5.5c5.7,0,10.2,1.8,13.4,5.5
		c3.2,3.7,4.9,8.4,4.9,14.2v0.7c0,5.8-1.6,10.5-4.8,14.2c-3.2,3.7-7.7,5.5-13.4,5.5c-5.7,0-10.2-1.8-13.4-5.5
		c-3.2-3.7-4.8-8.4-4.8-14.2V115.5z M497.1,116.2c0,3.5,0.6,6.3,1.9,8.5c1.2,2.1,3.2,3.2,6,3.2c2.7,0,4.7-1.1,5.9-3.2
		c1.2-2.1,1.9-5,1.9-8.5v-0.7c0-3.4-0.6-6.2-1.9-8.4c-1.3-2.2-3.2-3.2-6-3.2c-2.7,0-4.7,1.1-5.9,3.3c-1.2,2.2-1.9,5-1.9,8.4V116.2z"
		/>
	<path class="st0" d="M540.5,135.2h-10.4V79.5h10.4V135.2z"/>
	<path class="st0" d="M560,87.3h-10.4v-7.8H560V87.3z M560,135.2h-10.4V96.5H560V135.2z"/>
</g>
</svg>
