<?xml version="1.0" encoding="utf-8"?>
<!-- Generator: Adobe Illustrator 19.1.0, SVG Export Plug-In . SVG Version: 6.00 Build 0)  -->
<svg version="1.1" id="Layer_1" xmlns="http://www.w3.org/2000/svg" xmlns:xlink="http://www.w3.org/1999/xlink" x="0px" y="0px"
	 viewBox="0 0 800 240" style="enable-background:new 0 0 800 240;" xml:space="preserve">
<style type="text/css">
	.st0{fill:#FFFFFF;}
</style>
<image style="display:none;overflow:visible;" width="800" height="4896" xlink:href="2900E42D9029007E.jpg"  transform="matrix(1 0 0 1 0 -2417.5)">
</image>
<g>
	<path class="st0" d="M191.9,47.2c11.2-11,18.2-11.4,18.2-11.4s2.2-0.3,7.5,1.5c5.3,1.9,5.5,4.7,5.5,4.7v80.7
		c0.7,22.6-4.9,31.3-11.7,37.3c-3.8,3.1-6.9,3.5-7.3,3.5c-0.9,0-1.6-0.1-1.8-1.4c-0.2-1.3,1-4.6,1-4.6c3.4-8.6,3.1-23.5,3.1-23.5
		l0.3-87c0,0,0.3-1.6-1.1-1.1c-13.3,11.4-14.9,27.5-15.4,35.3c-0.2,11.7,4.9,17.7,4.9,17.7s1.3,1.2,1.2,2.8c0,2.2-2.1,2.1-2.1,2.1
		c-5-0.5-12.9-6.1-15.8-12.9c-2.4-5-2.3-10.5-2.3-10.5C176.3,73.8,180.6,58.2,191.9,47.2z M770.8,124.4c0,26-15.7,25.5-15.7,25.5
		c-15,0.5-18.8-15.3-19.7-31.4c-0.7-12.1,0-25.5,0-25.5s-0.1-0.6-0.5,0c-5,9.1-8.4,22.9-10.1,33.5c-1.2,7.7-1.3,14.2-1.3,14.2
		s0.2,1.5-1,2.3c-8.1,3.7-13.4-1.6-15.2-7.5c-2.5-5.6-3.9-39.4-3.9-41.1c0-1.8-1.4-0.4-1.4-0.4c-11.2,18.8-11.3,46.4-11.3,52
		c0,5.6-9.6,3.8-9.6,3.8c-8.1-0.6-7.8-4.6-7.8-4.6l-0.4-6.7c-2.8,5.2-8.1,12-16.1,11.4c-12.2-0.8-14.6-13.4-14.8-15.6
		c0,0-6.1,15.7-22.8,15.6c-11.4-0.2-15.9-11.9-15.9-11.9s-4.6,12.3-15.7,11.8c-11.2-0.4-20.4-13.3-19.7-30.1
		c0.7-16.7,3.3-25.1,3.3-25.1s0.9-1.7-0.6-1.8c-1.5-0.1-11.2,0.2-11.2,0.2s-5.5,21.9-28.5,49.1c0,0,0.2,8.5,0.2,18
		c0,17.9-2.2,41.9-26.5,43.9c-21-1.4-19.8-17.6-19.8-17.6c-0.5-4.8,2.5-13.5,15-25.2c12.5-11.8,17.5-16.2,17.5-16.2l-0.5-7.5
		c-8,13.2-20.3,12.5-20.3,12.5S487,152,479,137.9c-2.3,4.8-7.7,13-16.3,12.1c-12.2-1.3-14.6-13.5-14.8-15.7c0,0-6.1,15.9-22.9,15.7
		c-11.4-0.2-16-12-16-12c-1.3-2.4-2.3-6-2.9-8.2c-0.1,0.4-0.3,0.9-0.5,1.5c-2.6,6.6-9,18.2-18.8,18.3c-18.1,0-18.8-28-18.8-28
		c-5.2,12.4-15.4,28.3-34.5,28.2c-19-0.1-21.3-7-21.3-8c0-1-0.3-2.1,1.8-5.2c2.2-3.2,4-4.5,5.5-4.5c1.5,0,4.2,2.3,4.2,2.3
		s4.1,4,8.8,4c6-0.2,7.3-5,7.7-9.9c0.4-4.9-3-10.1-7.8-14.5c-4.8-4.4-8.5-7.6-8.5-7.6c-6.9,11.6-12.1,19.4-15.9,26.2
		c-9.2,15-18.4,17.4-22,16.9c-4.9-0.7-9.6-5.7-9.8-20.3c-0.2-14.6,1.1-39.6,1.1-40.9c0-1.3-1.2-0.7-1.2-0.7
		c-18.3,19.4-23.7,59.3-23.7,60.1c0,0.8-1.6,1.6-3.3,1.6c-1.6,0,0.5-0.1-6-0.3c-6.5-0.2-6.1-12.6-6.1-12.6l0.4-59.4
		c0.1-2,2-2.8,8.2-1.2c6.2,1.6,6,3.7,6,3.7l-0.2,34.4c16-47.2,28.1-39.8,35.4-36.2c7.3,3.6,6.3,8.8,6.3,8.8s-0.8,25.9-1.1,35.1
		c-0.3,9.2,1,12.8,3,13.1c5.1,1.2,23.3-33.9,23.3-33.9c-8.1-8.7-3.7-19.4,2.6-24c4.3-3.1,9.5-3.5,9.5-3.5s8.2-0.4,7.9,6.4
		c0.2,7.5-8.2,16.7-8.2,16.7c16.2,11.6,23.8,17.7,25,26.6c0.5,4.3-0.4,7-0.4,7c11.5-10,12.4-21.3,12.4-21.3l0.2-37.5l-17.1-0.2
		c0,0-1.3-0.1-1.5-3.3c0-6,3.2-8.5,3.2-8.5l16.3,0.2c0,0,0.5-16.9,0.7-19.6c0.5-3.9,3-4.5,10.2-2.6c7.2,1.9,7.2,3.5,7.2,3.5
		l-0.9,19.7c0,0,18,0.9,20.3,1.1c2.4,0.2,3.2,0.9,2.6,4.9c-0.5,4-2.9,5-2.9,5L385.3,72l-1.4,43.5c0,6.8,0.3,22.7,6.6,22.6
		c8.8,0.4,14-19.3,14-19.3l0.1-0.2c-0.1-3.1,0-6.8,0.4-10.9c1.7-15.8,8.7-34.4,25-34.4c0,0,9.9-0.4,15.1,9.5l0.2-3.6
		c0,0-0.4-4.3,6.5-3.2c6.8,1.1,9.2,3.8,9,5.9c0,0-1.3,27.6-0.5,43.9c0.9,9.5,2.5,15.1,7.4,14.7c4.2-0.6,7.1-6.3,8.9-11.1
		c-6-50.2,21.4-56.3,21.4-56.3s12.2-0.9,17.7,9.3l0.2-3.4c0,0-0.5-4.4,5.9-3.2c0,0,2.7,0.4,5.5,1.4c2.9,1.1,3.8,1.8,3.8,4.4
		c0,2.7-0.5,49.6-0.5,49.6s14.3-19.2,17.9-37.9c0,0-5-3.7-4.6-9.1c0.4-5.3,3-11.7,10.9-11.7c7.9,0,8.2,6.9,7,11.7
		c0,0,6.6-0.9,12.3-2.3c5.7-1.4,13.4-2.3,14,6.6c0.4,3.2-1.1,5.7-1.1,5.7s-4.5,19.8-3.8,27.8c0.7,8,2.9,20.1,9.1,18.7
		c6.3-1.4,8.4-10.3,8.4-10.3s-2.5-10.3-1.3-22.2c1.7-15.7,8.7-34.2,24.9-34.2c0,0,9.8-0.4,15,9.4l0.2-3.6c0,0-0.4-4.3,6.4-3.2
		c6.8,1.1,9.1,3.7,8.9,5.9c0,0-1.3,27.4-0.5,43.6c0.9,9.4,2.5,15,7.3,14.6c4.6-0.1,8.5-8,10.9-14.3l0-2.4l0.2-46.3
		c0.4-2.6,2.8-2.8,2.8-2.8l5.6,0.9c7.8,1.2,6.7,4.1,6.7,4.1V106c5.8-17.8,8.6-24.5,11.2-29.1c2.2-3.9,9.6-1.3,9.6-1.3
		s7.9,2.1,8.1,9.4c-0.2,12.1,1.5,31.7,1.5,31.7c0,0.3,0.3,0.4,0.4,0.3c0.1-0.1,0.1-0.4,0.1-0.4c1.6-12.7,8.8-33.4,11.7-38.8
		c2.9-5.4,11.2-1.6,11.2-1.6c10,3.4,8.6,9.3,8.6,9.3c-3,50.8,3.3,54.1,7,54.4c3.7,0.3,5.7-4.5,6.5-6.8c0.8-2.3,1.8-7.3,2.5-9.2
		c0.6-2,2.6-2.1,2.6-2.1S770.8,122.5,770.8,124.4z M434,85.5c-3.5,0.1-11.7,2.4-13.2,25.3c-1.5,22.9,4.6,28.8,9.7,29.4
		c5.1,0.7,14.1-7.5,14.7-31.9C445.7,84,434,85.5,434,85.5z M505.7,85.6c-3.6,0.1-12.5,3.2-14.5,25.4c-1.5,23.2,4.6,29.2,9.8,29.8
		c5.2,0.7,14.4-7.6,14.9-32.3C516.4,83.9,505.7,85.6,505.7,85.6z M517.7,156.6c-20.3,17.5-22,30-22,30s-2,10.2,7.8,10.8
		c11.7,1.2,13.7-13,14-25.5C517.6,166,517.7,156.6,517.7,156.6z M628.7,86.3c-3.5,0.1-11.7,2.4-13.2,25.3
		c-1.5,22.9,4.6,28.8,9.7,29.4c5.1,0.7,14.1-7.5,14.7-31.9C640.4,84.8,628.7,86.3,628.7,86.3z"/>
	<path class="st0" d="M141.1,36.3H44.3c-8.3,0-15.1,6.7-15.1,15.1v96.9c0,8.3,6.8,15.1,15.1,15.1h96.8c8.3,0,15.1-6.7,15.1-15.1
		V51.3C156.2,43,149.4,36.3,141.1,36.3z M117.4,54.3c0-2,1.6-3.5,3.6-3.5h17.2c2,0,3.6,1.6,3.6,3.5v17.1c0,2-1.6,3.5-3.6,3.5h-17.2
		c-2,0-3.6-1.6-3.6-3.5V54.3z M92.8,75.5c13.5,0,24.4,10.9,24.4,24.4c0,13.5-10.9,24.4-24.4,24.4c-13.5,0-24.4-10.9-24.4-24.4
		C68.4,86.4,79.3,75.5,92.8,75.5z M142,144.9c0,2-1.6,3.5-3.6,3.5H47.2c-2,0-3.6-1.6-3.6-3.5V89.7h11.9c-0.9,3.2-1.4,6.7-1.4,10.2
		c0,21.3,17.3,38.5,38.6,38.5c21.3,0,38.6-17.3,38.6-38.5c0-3.5-0.5-6.9-1.4-10.2H142V144.9z"/>
</g>
</svg>
